<svg width="512" height="512" viewBox="0 0 512 512" fill="none" xmlns="http://www.w3.org/2000/svg" role="img" aria-label="Buro avatar">
<defs><clipPath id="clip"><circle cx="256" cy="256" r="236"/></clipPath></defs>
<circle cx="256" cy="256" r="248" fill="#171717"/>
<circle cx="256" cy="256" r="236" fill="#F2D7A5"/>
<g clip-path="url(#clip)">
<circle cx="104" cy="116" r="34" fill="#F59E0B" opacity=".30"/>
<circle cx="414" cy="150" r="22" fill="#7A4A1D" opacity=".20"/>
<circle cx="402" cy="378" r="46" fill="#F59E0B" opacity=".22"/>
<path d="M82 386C143 330 202 330 257 386C319 328 383 330 438 386" stroke="#F59E0B" stroke-width="18" stroke-linecap="round" opacity=".18"/>
<path d="M142 512C150 418 188 361 256 361C324 361 362 418 370 512H142Z" fill="#7A4A1D"/>
<path d="M202 384C217 405 235 416 256 416C277 416 295 405 310 384C294 371 277 364 256 364C235 364 218 371 202 384Z" fill="#FFF7E8" opacity=".92"/>
<path d="M218 328H294V388C294 405 277 418 256 418C235 418 218 405 218 388V328Z" fill="#A96B3A"/>
<ellipse cx="168" cy="254" rx="22" ry="31" fill="#A96B3A"/>
<ellipse cx="344" cy="254" rx="22" ry="31" fill="#A96B3A"/>
<path d="M180 242C180 183 212 145 256 145C300 145 332 183 332 242V274C332 326 299 362 256 362C213 362 180 326 180 274V242Z" fill="#A96B3A"/>
<path d="M174 188C185 145 218 118 256 118C294 118 327 145 338 188C302 171 213 171 174 188Z" fill="#1F202B"/>
<path d="M154 174C183 132 218 112 256 112C294 112 329 132 358 174C313 158 199 158 154 174Z" fill="#F59E0B"/>
<path d="M260 155C310 153 347 162 378 179C333 184 298 181 260 169V155Z" fill="#F59E0B"/>
<circle cx="225" cy="253" r="8" fill="#171717"/><circle cx="287" cy="253" r="8" fill="#171717"/>
<path d="M238 303C249 313 263 313 274 303" stroke="#171717" stroke-width="8" stroke-linecap="round"/>
<circle cx="377" cy="392" r="38" fill="#171717"/>
<path d="M360 391C366 381 372 381 378 391C384 401 390 401 396 391" stroke="#FFF7E8" stroke-width="8" stroke-linecap="round"/>
<path d="M402 371C415 384 415 400 402 413" stroke="#22C55E" stroke-width="7" stroke-linecap="round"/>
</g></svg>