<?xml version="1.0" encoding="UTF-8"?>
<svg id="Layer_1" data-name="Layer 1" xmlns="http://www.w3.org/2000/svg" viewBox="0 0 566.93 566.93">
  <defs>
    <style>
      .cls-1 {
        fill: #171717;
      }

      .cls-1, .cls-2, .cls-3, .cls-4 {
        stroke-width: 0px;
      }

      .cls-2 {
        fill: #22c55e;
      }

      .cls-3 {
        fill: #f59e0b;
      }

      .cls-4 {
        fill: #fff7e8;
      }
    </style>
  </defs>
  <rect class="cls-1" x=".23" y="0" width="566.93" height="566.93" rx="283.46" ry="283.46"/>
  <g>
    <path class="cls-3" d="M282,199.01c-23.22,0-45.02,6.24-63.73,17.16v-81.12c0-8.83-3.55-16.75-9.33-22.53-5.78-5.78-13.7-9.33-22.53-9.33-17.62,0-31.87,14.25-31.87,31.87v286.29c0,17.57,14.25,31.87,31.87,31.87,12.97,0,24.13-7.74,29.04-18.85,19.35,11.97,42.15,18.85,66.55,18.85,70.19,0,127.1-56.9,127.1-127.1s-56.9-127.1-127.1-127.1ZM282,399.94c-27.18,0-50.94-14.7-63.73-36.6-6.42-10.93-10.11-23.63-10.11-37.24s3.69-26.31,10.11-37.24c12.79-21.9,36.55-36.6,63.73-36.6,40.79,0,73.84,33.05,73.84,73.84s-33.05,73.84-73.84,73.84Z"/>
    <g>
      <rect class="cls-4" x="275.12" y="281.22" width="13.4" height="95.85" rx="6.7" ry="6.7"/>
      <rect class="cls-4" x="253.17" y="299.42" width="13.4" height="59.43" rx="6.7" ry="6.7"/>
      <rect class="cls-4" x="231.22" y="312.58" width="13.4" height="33.13" rx="6.7" ry="6.7"/>
      <rect class="cls-4" x="297.06" y="300.94" width="13.4" height="59.43" rx="6.7" ry="6.7"/>
      <rect class="cls-4" x="319.01" y="314.09" width="13.4" height="33.13" rx="6.7" ry="6.7"/>
    </g>
    <g>
      <path class="cls-2" d="M462.73,169.28c-17.93-39.06-56.47-64.37-98.74-66.09-4.76-.19-8.76,3.57-8.81,8.34h0c-.05,4.55,3.53,8.28,8.08,8.47,36.05,1.47,68.85,23.08,84.16,56.39,1.73,3.77,6.01,5.67,9.99,4.47l.08-.02c4.89-1.47,7.38-6.92,5.25-11.56Z"/>
      <path class="cls-2" d="M364.4,141.78c-5.25-.25-9.63,3.98-9.69,9.23v.3c-.06,4.91,3.84,8.87,8.75,9.1,17.93.82,34.27,11.47,42.15,27.88,1.96,4.09,6.65,6.1,10.99,4.8,5.51-1.65,8.23-7.84,5.72-13.02-10.88-22.49-33.3-37.1-57.93-38.29Z"/>
    </g>
  </g>
</svg>