<?xml version="1.0" encoding="UTF-8"?>
<svg id="Layer_1" data-name="Layer 1" xmlns="http://www.w3.org/2000/svg" viewBox="0 0 566.93 566.93">
  <defs>
    <style>
      .cls-1 {
        fill: #171717;
      }

      .cls-1, .cls-2, .cls-3, .cls-4 {
        stroke-width: 0px;
      }

      .cls-2 {
        fill: #22c55e;
      }

      .cls-3 {
        fill: #f59e0b;
      }

      .cls-4 {
        fill: #fff7e8;
      }
    </style>
  </defs>
  <rect class="cls-1" x=".23" width="566.93" height="566.93"/>
  <g>
    <path class="cls-3" d="M277.74,186.5c-26.88,0-52.13,7.22-73.79,19.87v-93.93c0-10.23-4.11-19.4-10.81-26.09-6.69-6.69-15.87-10.81-26.09-10.81-20.4,0-36.9,16.5-36.9,36.9v331.5c0,20.35,16.5,36.9,36.9,36.9,15.02,0,27.94-8.96,33.63-21.82,22.4,13.86,48.81,21.82,77.06,21.82,81.28,0,147.17-65.89,147.17-147.17s-65.89-147.17-147.17-147.17ZM277.74,419.17c-31.47,0-58.98-17.03-73.79-42.38-7.43-12.65-11.7-27.36-11.7-43.12s4.27-30.47,11.7-43.12c14.81-25.35,42.33-42.38,73.79-42.38,47.23,0,85.5,38.27,85.5,85.5s-38.27,85.5-85.5,85.5Z"/>
    <g>
      <rect class="cls-4" x="269.76" y="281.69" width="15.52" height="110.98" rx="7.76" ry="7.76"/>
      <rect class="cls-4" x="244.35" y="302.78" width="15.52" height="68.82" rx="7.76" ry="7.76"/>
      <rect class="cls-4" x="218.94" y="318" width="15.52" height="38.36" rx="7.76" ry="7.76"/>
      <rect class="cls-4" x="295.18" y="304.53" width="15.52" height="68.82" rx="7.76" ry="7.76"/>
      <rect class="cls-4" x="320.59" y="319.76" width="15.52" height="38.36" rx="7.76" ry="7.76"/>
    </g>
    <g>
      <path class="cls-2" d="M487,152.08c-20.77-45.22-65.39-74.54-114.33-76.52-5.52-.22-10.14,4.14-10.2,9.66h0c-.06,5.27,4.09,9.59,9.35,9.8,41.74,1.7,79.72,26.73,97.45,65.29,2.01,4.37,6.96,6.56,11.56,5.18l.09-.03c5.66-1.7,8.55-8.01,6.08-13.38Z"/>
      <path class="cls-2" d="M373.14,120.24c-6.08-.29-11.15,4.6-11.22,10.69v.35c-.07,5.69,4.45,10.28,10.13,10.54,20.76.95,39.68,13.28,48.81,32.28,2.27,4.73,7.7,7.06,12.73,5.56,6.38-1.91,9.53-9.08,6.62-15.08-12.6-26.04-38.55-42.96-67.08-44.34Z"/>
    </g>
  </g>
</svg>