<?xml version="1.0" encoding="UTF-8"?>
<svg id="Layer_1" data-name="Layer 1" xmlns="http://www.w3.org/2000/svg" viewBox="0 0 566.93 185.65">
  <defs>
    <style>
      .cls-1 {
        fill: #171717;
      }

      .cls-1, .cls-2 {
        stroke-width: 0px;
      }

      .cls-2 {
        fill: #f59e0b;
      }
    </style>
  </defs>
  <path class="cls-1" d="M130.93,100.85c-4.26-5.12-9.67-9.17-16.28-12.15,3.32-2.2,6.22-4.81,8.75-7.81,5.67-6.74,8.52-15.71,8.52-26.89v-3.68c0-16.12-5.54-28.51-16.65-37.24C104.17,4.36,88.28,0,67.55,0H0v182.7h74.72c14.14,0,25.98-2.01,35.52-6.04,9.51-4.02,16.75-9.85,21.69-17.51,4.94-7.63,7.4-16.8,7.4-27.49v-3.45c0-11.5-2.8-20.62-8.39-27.36ZM70.04,31.57c7.71,0,13.3,1.96,16.75,5.91s5.17,9.38,5.17,16.28-1.72,11.84-5.17,15.78c-3.45,3.95-9.04,5.91-16.75,5.91h-30.58V31.57h30.58ZM93.71,145.22c-3.79,3.95-9.46,5.91-17.01,5.91h-37.24v-45.11h37.24c7.55,0,13.22,1.93,17.01,5.8,3.76,3.87,5.64,9.41,5.64,16.65s-1.88,12.81-5.64,16.75Z"/>
  <path class="cls-1" d="M290.94,46.36v135.11h-31.31v-31.15c-.71,2.98-1.57,5.75-2.59,8.34-3.55,9.12-8.75,15.92-15.65,20.36-6.93,4.42-15.47,6.64-25.66,6.64h-1.72c-15.6,0-27.6-5.04-35.99-15.16-8.39-10.11-12.57-25.35-12.57-45.73V46.36h39.44v80.39c0,7.21,2.06,12.96,6.17,17.25,4.1,4.29,9.62,6.4,16.52,6.4s12.83-2.22,17.27-6.66c4.44-4.42,6.64-10.43,6.64-17.98V46.36h39.46Z"/>
  <path class="cls-1" d="M410.76,44.64v34.03h-9.85c-10.87,0-19.23,2.9-25.17,8.75-5.91,5.83-8.86,14.24-8.86,25.27v68.78h-39.46V46.36h31.31v44.69c1.52-12.78,5.33-23.08,11.47-30.89,8.13-10.35,19.94-15.52,35.38-15.52h5.17Z"/>
  <g>
    <g>
      <rect class="cls-2" x="492.26" y="85.46" width="8.3" height="59.38" rx="4.15" ry="4.15"/>
      <rect class="cls-2" x="478.67" y="96.74" width="8.3" height="36.82" rx="4.15" ry="4.15"/>
      <rect class="cls-2" x="465.07" y="104.88" width="8.3" height="20.52" rx="4.15" ry="4.15"/>
      <rect class="cls-2" x="505.86" y="97.68" width="8.3" height="36.82" rx="4.15" ry="4.15"/>
      <rect class="cls-2" x="519.46" y="105.82" width="8.3" height="20.52" rx="4.15" ry="4.15"/>
    </g>
    <path class="cls-1" d="M556.21,152.52c6.8-10.85,10.72-23.66,10.72-37.38,0-38.95-31.56-70.51-70.51-70.51s-70.51,31.56-70.51,70.51,31.56,70.51,70.51,70.51c11.65,0,22.63-2.81,32.32-7.83l24.45,6.84c7.32,2.03,13.81-5.19,10.98-12.24l-7.96-19.91ZM533.14,152.73c2.11,4.43,4.52,7.94,6.63,10.55-3.08-.25-7.56-.97-12.54-3.1-4.37-1.86-7.64-4.2-9.86-6.04-6.25,3.36-13.38,5.26-20.96,5.26-24.45,0-44.27-19.82-44.27-44.25s19.82-44.27,44.27-44.27,44.27,19.82,44.27,44.27c0,8.4-2.34,16.25-6.38,22.93-1.29,2.09-2.74,4.09-4.33,5.93.68,2.57,1.69,5.53,3.17,8.72Z"/>
  </g>
</svg>